<?xml version="1.0" standalone="no"?><!DOCTYPE svg PUBLIC "-//W3C//DTD SVG 1.1//EN" "http://www.w3.org/Graphics/SVG/1.1/DTD/svg11.dtd"><svg t="1632033849194" class="icon" viewBox="0 0 1024 1024" version="1.1" xmlns="http://www.w3.org/2000/svg" p-id="2400" width="128" height="128" xmlns:xlink="http://www.w3.org/1999/xlink"><defs><style type="text/css"></style></defs><path d="M797.76995555 743.44448c44.26183111-45.92412445 43.36412445-118.90119111-2.00931555-163.72849778-45.37799111-44.82161778-118.36529778-44.82161778-163.74328889 0-45.37116445 44.82730667-46.26887111 117.80437333-2.00817778 163.72849778-55.80913778 30.53795555-90.61376 88.99128889-90.86520888 152.60899555a29.12597333 29.12597333 0 0 0 8.53333333 20.59605334 29.09070222 29.09070222 0 0 0 20.59036444 8.52878222h291.24494223a29.11573333 29.11573333 0 0 0 29.12483555-29.12483556c-0.24917333-63.61770667-35.05834667-122.07104-90.86748445-152.60899555z m-83.88152888-138.63025778c32.16952889 0 58.24967111 26.07559111 58.24967111 58.24739556 0 32.16839111-26.08014222 58.24853333-58.24967111 58.24853333-32.16725333 0-58.24739555-26.08014222-58.24739556-58.24853333 0-32.17180445 26.08014222-58.24739555 58.24739556-58.24739556z m-113.00295112 262.11669333c13.30289778-51.50833778 59.80501333-87.46325333 113.00295112-87.36995555 53.20135111-0.09329778 99.70346667 35.86161778 113.00522666 87.36995555h-226.00817778z" fill="#FF9E12" p-id="2401"></path><path d="M729.21884445 104.18176H169.59260445c-25.96408889 0-47.19843555 20.12956445-48.98816 45.59189333v694.25607112a49.04504889 49.04504889 0 0 0 48.93468444 45.61009777H493.75004445c1.96380445-60.97123555 29.08728889-117.73383111 73.74848-157.46730667-10.51192889-22.07288889-15.91296-46.43043555-15.60462223-71.5616711 0.52679111-42.89308445 17.62076445-83.11921778 48.13710223-113.26919112 30.52430222-30.14997333 70.95864889-46.75242667 113.85856-46.75242666 22.50410667 0 44.32782222 4.57614222 64.40049777 13.27217778V153.25297778c0-27.14282667-21.98641778-49.07121778-49.07121777-49.07121778zM435.72565333 582.00405333H267.45742222a27.41134222 27.41134222 0 0 1-23.73632-13.70794666 27.40224 27.40224 0 0 1 0-27.41361778 27.40224 27.40224 0 0 1 23.73632-13.70680889h168.26823111c15.14382222 0 27.41361778 12.27093333 27.41361778 27.41361778 0 15.13927111-12.27093333 27.41475555-27.41361778 27.41475555z m102.08824889-167.77329778H267.51658667c-15.14154667 0-27.41475555-12.27207111-27.41475556-27.41361777 0-15.13813333 12.27320889-27.41361778 27.41475556-27.41361778h270.29731555c15.14268445 0 27.41361778 12.27548445 27.41361778 27.41361778 0 15.14154667-12.27093333 27.41361778-27.41361778 27.41361777z m0-145.56501333H267.51658667c-15.14154667 0-27.41475555-12.27548445-27.41475556-27.41816889 0-15.13699555 12.27320889-27.41248 27.41475556-27.41248h270.29731555c15.14268445 0 27.41361778 12.27548445 27.41361778 27.41248 0 15.14268445-12.27093333 27.41816889-27.41361778 27.41816889z" fill="#1D92FF" p-id="2402"></path></svg>